# xmcd
#
# Track frame offsets:
#	150
#	14420
#	31577
#	48580
#	55755
#
# Disc length: 765 seconds
#
# Revision: 1
# Processed by: cddbd v1.5.1PL0 Copyright (c) Steve Scherf et al.
# Submitted via: CDex 1.50Beta5
#
DISCID=3402fb05
DTITLE=FROM YOUTH - 月光
DYEAR=2002
DGENRE=Rock
TTITLE0=月光
TTITLE1=Stand by days
TTITLE2=STARTING OVER
TTITLE3=Voice from youth
TTITLE4=CD125T
EXTD=
EXTT0=
EXTT1=
EXTT2=
EXTT3=
EXTT4=
PLAYORDER=
